<svg width="29" height="20" viewBox="0 0 29 20" fill="none" xmlns="http://www.w3.org/2000/svg">
  <path fill-rule="evenodd" clip-rule="evenodd" d="M27.4574 2.53544C26.7324 1.13025 25.8004 0.327283 24.7992 0.217787C15.4095 -0.712926 3.43064 1.49524 0.979642 3.88589C-0.090514 4.9261 -0.28038 7.3715 0.392782 11.3681C0.858818 14.1602 1.58376 16.6604 1.60102 16.7699L1.75637 17.3174L4.74245 16.9706C4.9841 18.6861 6.3822 20 8.07374 20C9.92062 20 11.4396 18.4123 11.4396 16.4414C11.4396 16.3501 11.4396 16.2771 11.4223 16.1859L18.4991 15.3282C18.4991 15.3464 18.4991 15.3829 18.4991 15.4012C18.4991 17.3539 20.0008 18.9598 21.8649 18.9598C23.7118 18.9598 25.2308 17.3721 25.2308 15.4012C25.2308 15.1092 25.1962 14.8172 25.1272 14.5435L28.1478 14.1785L28.3031 13.8317C29.5114 11.2039 29.0971 5.71082 27.4574 2.53544ZM8.07374 18.5948C6.9518 18.5948 6.03699 17.6276 6.03699 16.4414C6.03699 15.2552 6.9518 14.288 8.07374 14.288C9.19568 14.288 10.1105 15.2552 10.1105 16.4414C10.1105 17.6276 9.19568 18.5948 8.07374 18.5948ZM21.8477 17.5728C20.7257 17.5728 19.8109 16.6056 19.8109 15.4194C19.8109 14.2332 20.7257 13.266 21.8477 13.266C22.9696 13.266 23.8844 14.2332 23.8844 15.4194C23.8844 16.6056 22.9696 17.5728 21.8477 17.5728ZM27.233 12.8828L24.4886 13.2113C24.2814 12.9193 24.0225 12.682 23.7464 12.4813C23.2113 12.0798 22.5554 11.8608 21.8477 11.8608C20.8121 11.8608 19.8627 12.3718 19.2586 13.1565C19.0687 13.3755 18.8961 13.631 18.7235 13.9047L11.0598 14.8172C10.9908 14.6712 10.9045 14.5252 10.8182 14.3975C10.8009 14.3792 10.8009 14.361 10.7837 14.3427C10.1623 13.4668 9.17842 12.8828 8.07374 12.8828C7.21071 12.8828 6.43399 13.2295 5.84713 13.777C5.34657 14.215 4.96684 14.8172 4.74245 15.5472L2.7057 15.7844C1.61828 11.7878 0.686212 6.0758 1.87719 4.90785C3.51695 3.30191 11.9229 1.38574 20.1389 1.38574C21.6751 1.38574 23.194 1.45874 24.6612 1.60473C25.2135 1.67773 25.8004 2.24346 26.3009 3.21067C27.6472 5.82031 28.0788 10.5286 27.233 12.8828ZM4.89779 7.60874C4.82875 7.554 4.72519 7.49925 4.5871 7.4445C4.44902 7.38975 4.29367 7.3715 4.12107 7.3715C3.91394 7.3715 3.74134 7.408 3.58599 7.46275C3.44791 7.53575 3.32708 7.60874 3.22352 7.71824V10.6016H2.08432V6.33129L3.22352 6.2583V6.67803L3.58599 6.44079C3.70681 6.36779 3.82764 6.31304 3.98298 6.2583C4.13833 6.20355 4.25915 6.1853 4.39724 6.1853C4.53532 6.1853 4.63889 6.1853 4.70793 6.20355C4.79423 6.2218 4.84601 6.24005 4.89779 6.2583V7.60874ZM8.14278 8.08322C8.091 7.75474 7.97018 7.5175 7.79757 7.35325C7.62497 7.18901 7.41784 7.11601 7.15893 7.11601C6.8655 7.11601 6.64111 7.20726 6.48577 7.38975C6.33042 7.57224 6.24412 7.80949 6.2096 8.10147H8.14278V8.08322ZM9.21294 8.64895H6.22686C6.2959 8.99569 6.41673 9.25118 6.60659 9.39717C6.79646 9.54317 7.03811 9.63441 7.31428 9.63441C7.53866 9.63441 7.78031 9.59791 8.05648 9.52492C8.33265 9.45192 8.53978 9.36067 8.69512 9.25118V10.3279C8.53978 10.4374 8.33265 10.5286 8.02196 10.5834C7.72853 10.6381 7.48688 10.6746 7.31428 10.6746C6.60659 10.6746 6.03699 10.4739 5.64 10.0541C5.24301 9.63441 5.03588 9.08693 5.03588 8.39346C5.03588 7.69999 5.24301 7.13426 5.65726 6.71453C6.07151 6.2948 6.57207 6.0758 7.19345 6.0758C7.81483 6.0758 8.29813 6.31304 8.6606 6.76928C9.02307 7.22551 9.21294 7.86423 9.21294 8.64895ZM12.4752 9.28768V7.408C12.4061 7.31675 12.3198 7.22551 12.2335 7.18901C12.1644 7.1525 12.0781 7.13426 11.9918 7.13426C11.8882 7.13426 11.8192 7.1525 11.7502 7.20726C11.6984 7.24401 11.6466 7.31675 11.6285 7.4445V9.28768H10.4893V5.94779H11.6285V7.0225C11.7067 6.88675 11.8366 6.71326 12.061 6.62201C12.197 6.56726 12.3506 6.54901 12.5384 6.54901C12.7067 6.54901 12.8282 6.56726 12.967 6.62201C13.1232 6.69401 13.245 6.80351 13.3362 6.94076C13.4274 7.09625 13.4828 7.31675 13.4828 7.62751V9.28768H12.4752Z" fill="#FFFFFF"/>
</svg>
